<?xml version="1.0" encoding="UTF-8"?>
<svg xmlns="http://www.w3.org/2000/svg" width="256" height="384" viewBox="0 0 256 384">
  <!-- Enemy spritesheet: 4 cols x 6 rows, 64px grid -->

  <!-- Row 0: Large Slime (idle, slide1, slide2, hit) -->
  <!-- Idle -->
  <ellipse cx="32" cy="44" rx="24" ry="18" fill="#2ecc40"/>
  <ellipse cx="32" cy="46" rx="26" ry="14" fill="#27ae36"/>
  <circle cx="24" cy="40" r="3" fill="#1a1a1a"/>
  <circle cx="40" cy="40" r="3" fill="#1a1a1a"/>
  <!-- Slide1 -->
  <ellipse cx="96" cy="42" rx="26" ry="20" fill="#2ecc40"/>
  <ellipse cx="96" cy="46" rx="28" ry="14" fill="#27ae36"/>
  <circle cx="86" cy="38" r="3" fill="#1a1a1a"/>
  <circle cx="106" cy="38" r="3" fill="#1a1a1a"/>
  <!-- Slide2 -->
  <ellipse cx="160" cy="46" rx="22" ry="16" fill="#2ecc40"/>
  <ellipse cx="160" cy="48" rx="24" ry="12" fill="#27ae36"/>
  <circle cx="152" cy="42" r="3" fill="#1a1a1a"/>
  <circle cx="168" cy="42" r="3" fill="#1a1a1a"/>
  <!-- Hit -->
  <ellipse cx="224" cy="44" rx="24" ry="18" fill="#ffffff"/>
  <ellipse cx="224" cy="46" rx="26" ry="14" fill="#dddddd"/>
  <circle cx="216" cy="40" r="3" fill="#ff0000"/>
  <circle cx="232" cy="40" r="3" fill="#ff0000"/>

  <!-- Row 1: Small Slime (32x32 centered in 64x64 cells) -->
  <!-- Idle -->
  <ellipse cx="32" cy="108" rx="12" ry="10" fill="#55dd66"/>
  <ellipse cx="32" cy="110" rx="14" ry="8" fill="#44cc55"/>
  <circle cx="28" cy="106" r="2" fill="#1a1a1a"/>
  <circle cx="36" cy="106" r="2" fill="#1a1a1a"/>
  <!-- Slide1 -->
  <ellipse cx="96" cy="106" rx="14" ry="12" fill="#55dd66"/>
  <ellipse cx="96" cy="110" rx="15" ry="8" fill="#44cc55"/>
  <circle cx="91" cy="104" r="2" fill="#1a1a1a"/>
  <circle cx="101" cy="104" r="2" fill="#1a1a1a"/>
  <!-- Slide2 -->
  <ellipse cx="160" cy="110" rx="11" ry="9" fill="#55dd66"/>
  <ellipse cx="160" cy="112" rx="13" ry="7" fill="#44cc55"/>
  <circle cx="156" cy="108" r="2" fill="#1a1a1a"/>
  <circle cx="164" cy="108" r="2" fill="#1a1a1a"/>
  <!-- Hit -->
  <ellipse cx="224" cy="108" rx="12" ry="10" fill="#ffffff"/>
  <ellipse cx="224" cy="110" rx="14" ry="8" fill="#dddddd"/>
  <circle cx="220" cy="106" r="2" fill="#ff0000"/>
  <circle cx="228" cy="106" r="2" fill="#ff0000"/>

  <!-- Row 2: Bat (rest, fly1, fly2, fly3) -->
  <!-- Rest -->
  <ellipse cx="32" cy="160" rx="8" ry="10" fill="#8844bb"/>
  <circle cx="28" cy="156" r="2" fill="#ff3333"/>
  <circle cx="36" cy="156" r="2" fill="#ff3333"/>
  <path d="M24 158 L12 148 L20 156 Z" fill="#6633aa"/>
  <path d="M40 158 L52 148 L44 156 Z" fill="#6633aa"/>
  <!-- Fly1 - wings up -->
  <ellipse cx="96" cy="162" rx="8" ry="8" fill="#8844bb"/>
  <circle cx="92" cy="158" r="2" fill="#ff3333"/>
  <circle cx="100" cy="158" r="2" fill="#ff3333"/>
  <path d="M88 160 L72 140 L84 156 Z" fill="#6633aa"/>
  <path d="M104 160 L120 140 L108 156 Z" fill="#6633aa"/>
  <!-- Fly2 - wings mid -->
  <ellipse cx="160" cy="162" rx="8" ry="8" fill="#8844bb"/>
  <circle cx="156" cy="158" r="2" fill="#ff3333"/>
  <circle cx="164" cy="158" r="2" fill="#ff3333"/>
  <path d="M152 160 L136 156 L148 162 Z" fill="#6633aa"/>
  <path d="M168 160 L184 156 L172 162 Z" fill="#6633aa"/>
  <!-- Fly3 - wings down -->
  <ellipse cx="224" cy="160" rx="8" ry="8" fill="#8844bb"/>
  <circle cx="220" cy="156" r="2" fill="#ff3333"/>
  <circle cx="228" cy="156" r="2" fill="#ff3333"/>
  <path d="M216 160 L204 172 L214 164 Z" fill="#6633aa"/>
  <path d="M232 160 L244 172 L234 164 Z" fill="#6633aa"/>

  <!-- Row 3: Bat continued (fly4, slow1, slow2, hit) -->
  <!-- Fly4 - wings far up -->
  <ellipse cx="32" cy="226" rx="8" ry="8" fill="#8844bb"/>
  <circle cx="28" cy="222" r="2" fill="#ff3333"/>
  <circle cx="36" cy="222" r="2" fill="#ff3333"/>
  <path d="M24 224 L10 208 L20 220 Z" fill="#6633aa"/>
  <path d="M40 224 L54 208 L44 220 Z" fill="#6633aa"/>
  <!-- Slow1 -->
  <ellipse cx="96" cy="228" rx="8" ry="9" fill="#8844bb"/>
  <circle cx="92" cy="224" r="2" fill="#ff3333"/>
  <circle cx="100" cy="224" r="2" fill="#ff3333"/>
  <path d="M88 226 L78 220 L86 226 Z" fill="#6633aa"/>
  <path d="M104 226 L114 220 L106 226 Z" fill="#6633aa"/>
  <!-- Slow2 -->
  <ellipse cx="160" cy="228" rx="8" ry="10" fill="#8844bb"/>
  <circle cx="156" cy="224" r="2" fill="#ff3333"/>
  <circle cx="164" cy="224" r="2" fill="#ff3333"/>
  <path d="M152 226 L144 224 L150 228 Z" fill="#6633aa"/>
  <path d="M168 226 L176 224 L170 228 Z" fill="#6633aa"/>
  <!-- Hit -->
  <ellipse cx="224" cy="226" rx="8" ry="8" fill="#ffffff"/>
  <circle cx="220" cy="222" r="2" fill="#ff0000"/>
  <circle cx="228" cy="222" r="2" fill="#ff0000"/>
  <path d="M216 224 L204 216 L214 222 Z" fill="#dddddd"/>
  <path d="M232 224 L244 216 L234 222 Z" fill="#dddddd"/>

  <!-- Row 4: Snake patrol (S, N, E, W) -->
  <!-- South -->
  <rect x="20" y="276" width="24" height="40" rx="8" fill="#cc3333"/>
  <circle cx="27" cy="286" r="3" fill="#ffff00"/>
  <circle cx="37" cy="286" r="3" fill="#ffff00"/>
  <path d="M26 316 L32 324 L38 316" fill="none" stroke="#aa2222" stroke-width="2"/>
  <!-- North -->
  <rect x="84" y="276" width="24" height="40" rx="8" fill="#cc3333"/>
  <circle cx="91" cy="298" r="3" fill="#ffff00"/>
  <circle cx="101" cy="298" r="3" fill="#ffff00"/>
  <!-- East -->
  <rect x="144" y="280" width="40" height="24" rx="8" fill="#cc3333"/>
  <circle cx="176" cy="289" r="3" fill="#ffff00"/>
  <circle cx="176" cy="295" r="3" fill="#ffff00"/>
  <path d="M184 290 L192 292 L184 294" fill="none" stroke="#aa2222" stroke-width="2"/>
  <!-- West -->
  <rect x="208" y="280" width="40" height="24" rx="8" fill="#cc3333"/>
  <circle cx="216" cy="289" r="3" fill="#ffff00"/>
  <circle cx="216" cy="295" r="3" fill="#ffff00"/>
  <path d="M208 290 L200 292 L208 294" fill="none" stroke="#aa2222" stroke-width="2"/>

  <!-- Row 5: Snake charge (S, N, E, W) - elongated -->
  <!-- South charge -->
  <rect x="20" y="336" width="24" height="48" rx="6" fill="#ff4444"/>
  <circle cx="27" cy="346" r="3" fill="#ffff00"/>
  <circle cx="37" cy="346" r="3" fill="#ffff00"/>
  <path d="M26 384 L32 392 L38 384" fill="none" stroke="#cc2222" stroke-width="3"/>
  <!-- North charge -->
  <rect x="84" y="336" width="24" height="48" rx="6" fill="#ff4444"/>
  <circle cx="91" cy="370" r="3" fill="#ffff00"/>
  <circle cx="101" cy="370" r="3" fill="#ffff00"/>
  <!-- East charge -->
  <rect x="136" y="344" width="48" height="24" rx="6" fill="#ff4444"/>
  <circle cx="176" cy="353" r="3" fill="#ffff00"/>
  <circle cx="176" cy="359" r="3" fill="#ffff00"/>
  <path d="M184 354 L194 356 L184 358" fill="none" stroke="#cc2222" stroke-width="3"/>
  <!-- West charge -->
  <rect x="200" y="344" width="48" height="24" rx="6" fill="#ff4444"/>
  <circle cx="208" cy="353" r="3" fill="#ffff00"/>
  <circle cx="208" cy="359" r="3" fill="#ffff00"/>
  <path d="M200 354 L190 356 L200 358" fill="none" stroke="#cc2222" stroke-width="3"/>
</svg>
